<mxfile host="app.diagrams.net" modified="2023-10-24T04:03:12.232Z" agent="Mozilla/5.0 (Windows NT 10.0; Win64; x64) AppleWebKit/537.36 (KHTML, like Gecko) Chrome/118.0.0.0 Safari/537.36" etag="rJbeNPNRYZpWZWJ3C4oE" version="22.0.6" type="github">
  <diagram name="Page-1" id="neo5LPM1Cu2UBtZC8lRN">
    <mxGraphModel dx="1674" dy="1890" grid="1" gridSize="10" guides="1" tooltips="1" connect="1" arrows="1" fold="1" page="1" pageScale="1" pageWidth="850" pageHeight="1100" math="0" shadow="0">
      <root>
        <mxCell id="0" />
        <mxCell id="1" parent="0" />
        <mxCell id="4GXkYY8GZuQVcNmuauDH-1" value="" style="rounded=1;whiteSpace=wrap;html=1;fillColor=#dae8fc;strokeColor=#6c8ebf;arcSize=2;opacity=50;" vertex="1" parent="1">
          <mxGeometry x="60" y="190" width="1230" height="220" as="geometry" />
        </mxCell>
        <mxCell id="4GXkYY8GZuQVcNmuauDH-2" value="" style="rounded=1;whiteSpace=wrap;html=1;fillColor=#FFCC99;strokeColor=#6c8ebf;arcSize=2;opacity=50;" vertex="1" parent="1">
          <mxGeometry x="60" y="-140" width="1225" height="320" as="geometry" />
        </mxCell>
        <mxCell id="4GXkYY8GZuQVcNmuauDH-3" value="" style="rounded=1;whiteSpace=wrap;html=1;fillColor=#dae8fc;strokeColor=#6c8ebf;arcSize=2;opacity=50;" vertex="1" parent="1">
          <mxGeometry x="60" y="190" width="1230" height="220" as="geometry" />
        </mxCell>
        <mxCell id="4GXkYY8GZuQVcNmuauDH-4" value="&lt;b&gt;&lt;font style=&quot;font-size: 32px;&quot; color=&quot;#e78822&quot;&gt;GODP&lt;/font&gt;&lt;/b&gt;" style="text;strokeColor=none;align=center;fillColor=none;html=1;verticalAlign=middle;whiteSpace=wrap;rounded=0;" vertex="1" parent="1">
          <mxGeometry x="1170" y="190" width="120" height="60" as="geometry" />
        </mxCell>
        <mxCell id="4GXkYY8GZuQVcNmuauDH-6" value="" style="shape=image;verticalLabelPosition=bottom;labelBackgroundColor=default;verticalAlign=top;aspect=fixed;imageAspect=0;image=data:image/png,iVBORw0KGgoAAAANSUhEUgAADwAAAAh7AgMAAACHF9MiAAAACVBMVEVHcEwAidZru+hEwATNAAAAAXRSTlMAQObYZgAAIABJREFUeNrs28ENwlAMREFyoIT0kxL+AfffChJcEAUketFMCZZWrL/D4wEAAAAAAAAAAAAAAAAAAAAAAAAAAAAAAAAAAAAAAAAAAAAAAAAAAAAAAAAAAAAAAAAAAAAAAAAAAAAAAAAAAAAAAAAAAAAAAAAAAAAAAAAAAAAAAAAAAAAAAAAAAAAAAAAAAAAAAAAAAAAAAAAAAAAAAAAAAAAAAAAAAAAAAAAAAAAAAAAAAAAAAAAAAAAAAAAAAAAAAAAAAAAAAAAAAAAAAAAAAAAAAAAAAAAAAAAAAAAAAAAAAAAAAAAAAAAAAAAAAAAAAAAAAAAAAAAAAAAAAAAAAAAAAAAAAAAAAAAAAAAAAAAAAAAAAAAAAAAAAAAAAAAAAAAAAAAAAAAAAAAAAAAAAAAAAAAAAAAAAAAAAAAAAAAAAAAAAAAAAAAAAAAAAAAAAAAAAAAAAAAAAAAAAAAAAAAAAAAAAAAAAAAAAAAAAAAAAAAAAAAAAAAAAAAAAAAAAAAAAAAAAAAAAAAAAAAAAAAAAAAAAAAAAAAAAAAAAAAAAAAAAAAAAAAAAAAAAAAAAAAAAAAAAAAAAAAAAAAAAAAAAAAAAAAAAAAAAAAAAAAAAAAAAAAAAAAAAMC/bcwAugQYup4CDAIMXNGgBRiyNgEGAQYusM8yBBBg4HQjwJD1FGAoN2gBhqptZg5jgGyDFmAIN+iXKUC3QQswhBu0AEO3QQswVI0AQ3oF9ggN4RVYgCG8AgswhFdg/waGcIMWYBBg4IoG7YoESZ8j0iyDgG6DFmDoNmhXJAg3aAGGpH08QkO8QQswhBu0AEPR9w3aGRjKK/AyCeiuwIdJQHcFFmDorsACDOEVWIAhvAK7IkG4QbsiQbhBCzCEG7QAQ7dBzzILEGDg/AbtigThH2ABhnKAzQK6DVqAIWcTYLhDgxZgyNnHdxxwgxV4GQZ0V+DDNKC7AgswdBu0AEO4QQswhBu0KxKEG7QrEoQbtACDAAMXNOhZxgECDJzj9w3aFQlidgGGezRoZ2Bo+X2D9ggN5RVYgCG8Ai/zgGyDFmDe7N3LccQ2FkBRsWoYAvPhYgLAgsg/Fa9dJrv5weeBfc52bFUN1Vd4ACiZgSdoAcPAE7SAYSzZLRK8ZIIWMAw8QbtFAgEDTfz7EknAMPIWWMAwkn/363eRYOAJWsDwtoCN1RDU8j3g2bIMY2yB8+4inTwnGGGC3gt4djQNY0zQm4Bh3Ak6CRjGnaDT/irtSUFA87kVWMAwwgR9tAInjwriT9C7N74ChkECPlimBQzxLPnUexx+RwmG2AIfrcBOsWCACXo7+qc8LIhmPh/w6mlB+C2wgGHgLXA6Cjh5WhB9gt5daGd/KguGmKAFDKP47xn0/mHz4j/YAKMHvHpgEHyCPnyPQ8AQzE6/m4Bh3An6Q8DJE4NAdi6R9iv1n1yBMbbA6/FKLWAIPkEfXwO7R4LwE3T+EzAIGKgrXw04eWYQegu8CRjGnaCTgGHcCXq30SW7R4LhA3aKBVEsOV97j8Pb0CBg4LndM+j9IVnAEM3uGfT+MdX0eYcMBJmgvwTsGBpiyHcCdgwNgSfozy9iCRhCT9D7m9wlO8WCASbo/YC//e9AWweXSPsrrIBhiC1w/hMwDLsFzt9Wa/dIEHcL/HUFdgwNcSforyuwgCFuwNvXgFcPD6JO0Olr7QKG3qb7ASdPD6JugXfzXLJjaBhggt4fkAUMQ0zQX1/EEjDEnaC/XwO7R4KwE/SZgFfPD2IGvAkYxp2g04kdc/IAoadFwDCs4zPoUwE7hoagAa9nJm5PEEJugU+8xyFg6CsLGN4Y8P72dsnukWCALfC5gJNnCN0sTwN2DA0ht8BJwBDbfDngcy9MA30n6P2AJwHDCBP0fpnTucsmoL6pQMDJY4R4W2ABw8AT9NmAHUNDwAl6O7lmCxgCTtBnA3YMDX18ukQ62Nsu2TE0DLAFXs/+KwKGcBP0+YCTJwkCBopN0AKG0KZ8/Rr47/w/CfSboDcBw7gT9HZ+1V49SwgW8P7OdhEwjLAFFjBEthQLOHmYEGuCPlhWlwvnXUA1s4DhtRP0hWtgAUO0CfpKwC6CobEvZ9BXroEdQ0O0LfClgJPnCaEm6HQlewGDgIEyW+CDJpfsGBr6+3aJdOUa2DE0BJug87XuV08UAk3QAoa4vl0iHe1qBQwjbIEv/D0Ox9AQbYK+GLBjaAg0QR8sqdPFLTNQwdd+Dza188V/HugxQQsYBp6gBQxhLfnmNfCcHUND/An6csCOoSFOwNvl2dtjhTBb4HR59vZYIcwW+CDgLGAYYAucLv+bnitEmaBvrMDJg4UoAa+XV2ABQxP59i2SgGGELXC+3r6AoYUTZ9BH18DT9X8FaD5BX3+PwzE0hJmgL/5BHb/OAIEmaAHDyAEnAcOwE/RRjEt2DA09zdUCdooF1WUBw8sn6Hyrfk8XIgc8CRi6OnUGfes9DsfQMHTAyeOFus5N0OlWwN6GhrrmR4fQAoYBJuibATvFgggT9N2AVw8Y+k/Q+eb6LWAIMEHfe48j5+QJQ/8J+sbf4xAw1HbyNayjEKeb4QMtJ2gBw7gT9O2A3SNB/wn6KOD57vUT0G6CvnsNLGAQMPBkgt5u/wBInjJUMtcP2DE0hA34/itcwFM5V34RS8DQfwt8tJMVMAwwQR+dJQsYBpignwS8es7QOeAHM3jynKHvBP0kYPdIUMXyOOBZwBB/gs4PfgQIGDpP0NuDgB1DQ+cJOj1Zw1ePGoqbcqOAk2cNPSfow0VUwCBg4KrcKmCnWNA34GfbaM8aek7Q27OvsXraUNgiYPiNCfphwMnThn4T9GGB87P+gQYTtIBh4An6cBO7CBh6mFoG7B4JOm6BH77H4Rgaek7QD9/jEDD0nKA3AcO4E/TjgJMnDgVdukQ67O/xfxoNqL8FFjCMO0E/D9g9EvQLeH38ZTxy6DVB5+c76dUzh1KmQgE/H8KB2hO0gCGSa5dIx2fIAob4E3SBgN0jQa+A1+cBO8WCThP0YXyTgKG9bAWGn5mgC7zHIWAoZS4V8JIdQ0P0LXAu8YUcQ0OfCXor8pPAg4cuE3SBa2ABQ68JOhUJePXkocMELWAYeIIuFHDy6KHDBH2Y3iRgaO1yv0XepHSPBH0m6FzoS3n20GGCFjC8MeBFwNDW9UukQi9iuUeCoQNOnj60n6BToa/lGBqeygKGX5qgi/w9DgFDnwk6F1vNPX5oPkHnYqv56vlD6wm61HscAoYOE/RW7KdB8g2A1hP0VmwFFjA0n6BTsYAdQ8MTcy55izRnx9AQfAssYBh4gj4OeBEwhA/48MsV/FkA1JmgSwacfA+gbcBbwYAdQ0PjCToJGMadoAUMAnYMDc/ksgEX/dVi4LM5974G/rScAxUm6PwnYOjv3hn0h3Onor+aCNSYoAUMA0/QZQN2DA335BABr74R0G4LXPRNSgFD2wk6p7I/EZLvBDQMeBUwDDtBl/x7HAKG1gH/lQ3YMTQ0nKAFDAHk4gEv2TE0BJ+gt9IrsICh3QSdrMAw7gSdSn/J5JsBrSbo8gH7dQZoNkF/mHgFDOMGPAkYok/Qxa+BXQTDVXOkgFffD2g0QVcIOPl+wCX3+90EDONugZOAYdwtcCo/ljuGhkYT9IeAK2yrgaITdPn3OBxDQ7MJuvx7HAKGZhP09idgELBjaGg/QVcJ2DE0DBywY2hoMkELGDp7UtqH7eosYAg+QX9IbcmOoSH2BF0p4OS7Ag0maAHDwBN0pYDdI8FJi4DhR7fAW/OtNVBsgk4ChnEn6OOAn52Nrb4xUH2C/hBatZUdKNSZgEHAAoYeE3Su9ZPBPRLUD3irtrT7zkD1CbpewOu7n/v/fPQoYakW8CLgT2PO6rNH/y3wVu0rv+kDPjmlI+QE/eFjOFX7yi8Zc3z46D5Bf1gnp3pru4ChyJxbMeD89qdsE0yVzVmhygT85VHYBNN9CyxgATPwFrhmwO8ZMWcBE3OCrvcex5s+4FZgxgt4yY6hP/4s87Y33SfoJGAB002uGHAWsIDp8MEqdND0+Gu/5xh68ftWhJygc83V/T3H0P7sF8MFPAlYwATfAtcNOAkYxg14EzDUbKzmexwCho/mmkOugL/+oEw+gvQNeK15QPaaexYBU8USPeD13T8ovclB3ICzgL8+Zx9BXh1wEjBc3ZpFeRFLwFA14K1ywJuA4erZSpkVskTAWcDQJeBJwN9/lq0+hAh43K1K8iGkwmQX4u9xvGeJmn7ib9cTZ7Ir0decHUMLmNgBV13eX/MJnwVM04VBwFZgBCxgKzCRz7C26gHndwfsIpioAZfp9xXH0L/wV78Q8GuPoQVMzIBT1Q22gKFqYquAHz7o5HPIqwN+wzmtgKlgHiLg/O6A3SPRbwss4MejjoDpGPBfg4DHP+aZBUzIgLe6A/pbdomLgGm7M4tzDfz2gL2KRYWdWZQ/qPMDAa8+iRTfmRXYnhYLePwhMwuY3w04vzvg5JPIuwNeBQzXdmbP10YBnztsEDAV1oU418AChjqFbW0CTgKGCitwqjugv+UYen7/3wxiyBVYwCUOG3wUeXfAWcBQoTABCxgBv/0YOguYkAGvArYCM2zA24Nl55fukX7g7+Yy4hlWo2tgAcN/zAMFvL36R2XyYSRcwHPJgPOrn7Q3OegTcGoW8CpgKF3Y/6sekQkYbp+sRLpFEjBUOGT6axZwEjCMG/D25oC9yUG8gLOAT/8sW30ceXfAQy9SP/B3c4m3LAR6k3LsgCcBEzLgVHmBf8mUKWB6zHWR3uMY+jMuYGJugVuuwAKGgVfgTcBQNrC1YcD5zQG7CKZHwH8CLnRc6PNI+U+VgAXMiwPeav+AeMk90vLm/3OMe4bV8j2OkQ96BIyABz6GFjDF1b4GFvClR5F8IrlkFrCA+e2A18or/EtOaqdX/3TinQGXX4GH3SfOAqbHwcqjD90/7N3fbtw6DgdgCwjvN8DyfVSguVcB+f1fZYFiz8FuT8ZjSfwr/3hXNJN4ZH6mRCmTAsBDz0pkJCIUYAJgAEa4rstinePIC5h3fnMIAN69DQ3ACAAGYARCFnAzBpx1nfjPN/IFwAj3HtZ1zgEwACMsk0rYEwBfTHa+cBQL8UDAbRfAP3CSAxEbsMI5jqyACYAR6QCTBuAOwAiElK8OwLP9wgrACHfAzRzwuctYAzBCvCrI7iLpAK77VmAchkYAcGbAFVmJMO1hOQBum4x1xWdyIFaiqANmAL4AfAAwwh2weonfo9NTvnsbAIzwBtwBGIARPqG+DVx0AJ8AjEDIrFBdANctADcARrgDbgA8O9tp390AnORA3I4zK+C2CWDCSQ5EZMAEwACMMFyWpTjHkXKeed4FXJGYiOmikODX+ZOWKQBGAPBugAsAIyIDPgEYgBFawdqUihrgugPgCsAI4ZxKcZIyZRv622df2ebzRhBJATefCtz3APwBwAgAztpveHELkJiIW6G/DQzA7wAzACMkc0q2HQzAlw1DAEZI55QsYFIDnK5XiwqMyAeY9QA3VGAEAAOw42D3FyNUkZoIqx6W0zbwNoAJv9KP8ATcUIGnB7u9GCEARsy2VYR7SYoV+NwDMCowAoCTAq4HzlIinHtYfoArACMAGIB9AeMsJWI29CeyRRNwrpUiATBCvyYI7yKRJuCeHvDLeRCSE2EEuAHw/Hrl5X9UZCdiqiZkApyrTr18AgEwAoA3A9yQnYipSV0qwDU54AbACNmUkkbEAHzRcGgvH3LYCEYYAT4cATcARjw3DHaRVLeBc6X564+PBWBEVMAHAL8HfAAw4pkVOFMbmgAYoZ9SABwDMI5iId4G5wdcc4/2xTqjIj8Rh8H6tLkCbrlHG4AR3hW4AvA04H5xIwAYYVKBq/4yewvA5eLqUYERQimV6df5kzVrLwCjAiMmggwAs7bgLQATDkMjvAAbzNK3aENfTaHxqVgIL8AdgHUAYyMY8SYMfpkQgC9HG4ARsouyfIBbZsAHACNE53T5APfEgDsAI2IDJnXA5w6AcRga4QW4AjAAIzyCADgMYMJJDoREVyXXB+qkyvNzFHBDiiL0+0vugJPkeRkGjJMcCH3A3uc4UgNuAIxwBtxQgec7DgCMkC0J+baB0+T5dZsKgBESGZUR8Jl3uA8ARkyHzOy2GlT5LdrQ14BxFAsBwIkB4zM5EC49rG4xTd+ii8UAjEgHmAH4arjf/HdDkiKUZ7cRAPesgDsAI0TXZDmn0FsAZgBGxANsUoHPrIAbACNEmyoZD2IlafaUCcDYCEZoV+AKwDIVGCc5EB4VeDxrH9qGfvf7gjjJgVie0okDLgB8d40LwAgATga4vhuqijxFPABwB2AEACvQMQJ8JgV8ADBCsqkiPnklAL5o5/W3/b6GPI0eHz+//r5dn94VAYBNxxuAt6uDhjfs3Alwgqnm2wqMo1g7zGOzAa4xAMdP9DIFGCc51O7HZ//19e+fP1a+x6drR9UE8AnAS4CxEaxdObs8oVSAjxiAe56MefnYwUkOn7sxW4QLu3ZkCIABGHx/x09pQBYTQjaBYwU4fheL3140ALu1f8RnsAAMwDjJYXcrurSfDsC7dbHeP6cB2K+dODzMH+4HE2zcAPDFSPQbgwXAJs2f0YrJ7glZTNyQGeC+KeAGcSZTT3HA3eM5JL70ZDPA5waAcZLDay0znD7+CWmziwTAVzOefuOedNk8VXpmU4SpA9+6VokmKEkUNwBOtVgkY8B6v8fZ7t3nHgFwuz0u6QCfuwFuAGzTfbgJ+JQcqj6Z0v12RlaFh2MCwB2AF0C1bSqwaPrypK870wASKJdFSgcAJwdcUYHvpmYVqsBsCVizBNvsIlkCDt6uvZPikmcpyXSgRZeAioBJYME6MrLZAZfTMPJV4FvDVbMCjjiFlug4jRSlappP8q1fAB6bZALwwijc2KgrAtTK6lhl2kUiS8Cx95FujR7Lre2fB/hGBWaB7AnSmTkB2DSKNeBiCli9ifVz7nXygMv6YAEwAEfrQudYAxeB7OEgWbkh4J4NcN+nAoeYQr+9Vl6HViQed3Ga0O/MfAHwxYA3rIFt18AClZKlaxy2gfMCrvfGC2tgoQpMAoCjHDASklXF3+6zAZMcYKyBNQCXKGm5I+DQG8F0a/QET3KgC/2PaxVoNmlMUwE4QxuarQFjDfzntRYAHn3XxRZwCwz45uhlrcAZutC0DpikxisK4Ei7SLEBb1SBW9IKzOuAw8wMjXaRAPj+FkfuCpyhC72urITJS7IRYww4cht6YSraglXgpL+NVNYBz85bATh/G3oBQg9WgZugOcMuNC0Dnh7SCsDp29ALU9EMgBOsgdkPsPwcmm0AMwBfPMruAj5RgQXWwGU5dxZG1GRTQwEMAI8CpgSAa8oK7ApYOjGlbq7Rc2KDLhbdrGQZAEuas6vAtGxsoRy1nIALAIsArvEBi24jqXSh14tkoPbqrhX4TAW43r0zsQB3lwq82oUuy4CXBlR4Ds2bVuC4gO9WqAQVuKlXYI018DpgFn/quQPuqMDSgIvYCsoWcPg1MG8F2GjJaV+Bo7ah739iu9jdL6YPyfAVeBlwiZSZms/id/NB1WgA7AM4fAVeFkaRMtOo3tkD7ukBMyqwRhe6LCczBwJcjAAzAF+MeL8/ZpEAN58KvNiFptVkLirPPQDeDjDlBBx9DczugCUXwbQt4KhtaLotITzgmnINvJzMrPPgC70N7AG4ArAL4OAVuKxmTglVW6y2gR0AB21D8xrgGgdwPzJWYNoL8AnAAQDX+5nSwgMOXoGXAQukcs0H+ATg4ZSMDrg5VeC1LjSv+gqVmsUIS3EA3PMAHvjSQICrQQWW3wc+AwCWS02rJjQ5AI7Zhi4DV8qxAR9OFXhpDVxWs5lCpebWgCsAewCOvQZeBsyhUhOAIwDuA7nSwwDuKSswrSZOrP6M1TYwAF+NRBf42jiAY1dgDgFYbBFs1S8C4CtMbeTxGgZw86rAS13o1cQpNhXPGHALCbhnqcB1ZNRqFMA1ZQVeBcyhiovVLpLHOY6ggPmRgOOsgQE4TwUOuY80dDdDAxbY6LbfB6ZFXSVWcaGtKzAAawLuR8YKHAWwUG5+oQIDsDRg0TshvQbmRcAUKzetdpGcALcdAbcggKtbBV7pQq8uUINtkZwAHAHw0Bf3xwNeqcAAPJlTLoB7DsA9JWBxcxZr4LKIq8QqLoYtNewjvR7ylhFwH7rVUdbAtAiYY+UmAbB10BBglml/2AKOXIHjAD6TAfZZBNfkgCku4LGnTpQ1MK+lzY2B/PXx+9UfJrnJ6jdT+SxBPsAMwJ5d6FMZ8K+/vvA9rhYIcI0KuCUHXOICli+aFhV4MZ9pJN9If31nWegYgIUA1+CAQ0yhvxdTFvOZ79Xf/8aXNuBiCdhlEdxTAB7ctWgRAPeUFZgW8/n6Zf/6c9gpC+ADgFcAHwkBt5QVeBFwGX0V6zZoyBKwzyI4HOBzHXAPDnjfCkyjuVZ0AbNpnUMb+hj7RKxXgxYCcHWswPNdaNYD3IazvoUB3ABYCzBHBXw4Ap6vwC8y/uv4UT5v/AAezzTeBzADsBdg+YdnVzBnsAb+Vu+Pj9+v+Ph8+wMmDJBmg8Z2s8ZlEdw2BLy8sP/QHdfAFfjNYNL1Dygz40F6DZryAMA9OWAymFaUP5L9///Zh295qgrcv3uVJOBDD7BYE/rm3XGZQwcDTALVzHhdQCkBf1uBy9tvRXOA21ThqgrVAIDtt4GrcwWeuW3Vcwo93YWm9+kx15CqUyvVpvFoVUQCwOMFhTRuvECnRKNo6ldgfr96mQM812rqGo9WxXVmAeDhfCzugMfPksQ9icU3BpJf/4DJUlp2AeyyE1wB2BpwngpcX8x56mABmoTWFZJpO8AtN+BD48br9rASVeBXr6xjS84+M4QC00NzIx6L4Fj7SCUfYBa55BgV+Nb3oWHAdeauC0wPzQHT4wGPf+i5+3saz7ywXehya+ALn4P1Z1pala8GqsvM8njANHyFKkexVJfAcSsw3fs2dI4xbDMXI7C+o0cAjtXFEgJcQwMOuwa+Cbh06YkwqVQXsRWpw4/MCpiHH8MhAbcdKnATePjeVRgacI8NuOUG7H0Ua+IBkqQCVyHAbeG12QATAD8AcJIKLOWlOgEWW5B2h5+ZFbDQMZ7me8XneKaH6ELz0hXxSvorACYHwC5HOaIDrtLmnXtYcSswL6XFUoFg+epCHiUOgJMBpokfH3YN/L//+CU1Y116dQjAI/eGnw145g8t+G5uk9AjJ0QFXrqgsjT/VADMHkA8ulh1P8BnaMApKrAx4EMesE+Fe3YXq0xkgC/gU+iRE6ECr81haK08MABvAJgmUonDAZ654ghd6LWkODUAn7LFwACwwyI40GlozgZ46i9DZKjAVQhwX/QWAHBfrkHPBtxmRixyEzrsGnhtABcreZFu0JDPDNXjKEduwEX2vgt0OpuSOcMK3M0BH2EB1/CAKwBb9rAyVGCxv05T156FCzfSiwcASwBukQEnqMDjl0OrszvaBDA/GfDM1Qn9hVHBRol7BV7vQleRZ6/AL/I02VtjwMOhi9VCA1bZyfHsYWWowELdgKHUEu6werWIntyGntkGdq3Ac4Djr4G7FODqBri46QDgwYtjv7fEU0kbvwJXKcDL36GLPls3BXzmBkx+gOdGM34FHr+asp78soAZgDMDPiMDjl+BpWasbf1b5APssAiu+wE2eUuTy+/wXeguBbgaPA61ATeZoXhEGzob4LkeVvwKLAZYYD7TADgPYJ66Nj/Acz2s+GvgJvQs646AHaen/FjAc+OXDnD4ClyFvDSB4ZzMTbmF6JEAcA8MWG0i69bDil+BAXgJsEMXKzVgt8PQs0dIwldgqWdZFRjPhIALAI9dWijAbc5OqC40AGcDHGMfqQgCPgMDjl6Bu9BldAl0XW5YzJaXADwGkZ0AT/awwq+BnZrQkic55IrgzAzAfhHcUgM+IwFWNGdVgZvQUDSJ9wLAedrQs4ea2WlScQpeb6QKXIUAV5/vIgu4uv70XIB58gHoBLikBsyiPSwAdl4EA7DQRKkpmrPqQjs1oSU3gtlXBgPwyO1zOsnxH/buIEdyG4kCqAgMD1CAeR8uqvdsgFpUnWaOPpj1tD2VyR8RP0K/bMCrzpYoPn5GUJUeyPAjSuCoJjTyQT4O8MwMuAkwsgZ+Y+RA34qCe5DB0eZfBK9ygM3L+vcPPci70CjAC3MzsYC3ANvPxWyAyRP4jUvphm9Ur1BAC/dU6reh354FIWX9++8ukNfAZIA36tl41paPbEP3d6+r8QBeFIDPutCodsD1YMBdgF95eiF3NKAbBp4E3oGAUQeCIxqwfxE8ywGeEYDf/pM8NTAK8Hoy4EuAX5lNEW9yHOzbxyMSOBLw/TzAS4ABgLepOd4ERs2ozgY4/mupE7Whx9uX1QMAH7w1xJ3Ay/EifrIqfk3M4uqba12ATwEv/6tlAXzUhQ48RfrjVb0BuMcDbg8E/P4ARrzJcTD5uRPYtfj5CeB/C3CKc6T2vggawL4bTpsamA3wd0rAD2xDFwD8w79SCWycwINARRfgn8+mAMAtO+DKCXwLcMDPx8Fs8gd80jejTmDUm4sLNayvAwbWn+AVvvRBcAcDtq3qT46ezWvgky70Ag3GVQHwSQg8rg19Atj/TY4BvlqaBJ6hgBuiBqZIYP8uVjTgcbCq+B8E39kBI0up2xLw6wncKVKtCzAx4KOvoCiXwDdXAg8BFmDLv7BaAjfc1IckMA7wQq/xhdvQR5kmwGwJvGCz4PUEJjHxtDZ0KsBHj5v6XWjQ2osD/C3AKQC3kwHkAHyxAD5I4E0HOG0CexfBmxDw0R/ezhe7rc151MDBgP+wrrycwJ0EcBPg++C5m7blzgBXS2Dk/YzzBAYCNtimlW1DpwJ8tmUfxRIYeT/9PIHHUwHHtqHflpDuAAAfH0lEQVR7JsBnb34xJ/ACjQZuGnzFAd4CXBTwzQ34oAsNArxx0+DlBKbp63p3sWLb0AMP2GxFOvwmeeYEnnSAX03gJsAhP2dXRAB45wJs+x5HYALzAH5WG/psALsr4F4A8MC1bW6qBGY5RXpaG/psAH0Pggd+u8CSwKCgWTjA33kBDwFOBHjmAoxL4G4L+NUEHjwgvPfQMy9g3y/VOXzaxF1o1BfqTNyc/xbgDICbAeDb81qZAL+fwISAX01goqaQN+DINnRPBLgfDh5xDYwCDNzdfIcBPvfwoDZ0PwQYDngmAzxgc9YY8IsJ3JgAj2cD3gLsncALNEvjErgzAfZ+lSMxYM83OYYS+P980gYC/koMuAnwESqjov42uFaSLvTkA/xiAgN3rdNmqgiwRWPpdFmlAvx+Al98gL/CAFtt1kqeI41Df46Aj/8q4hoYdAWBCczVEnIuglcc4NsC8HZba/IBHlkAf2UG7FwEx7WhWyLAxzO/fgIv4Oi+lsBNgHkAz9MPEGCHBG5YwOMsgckAX48GfP7gHgr4/S40qMybwNF9LYGpTpEe1IZOBPh8s86bwKgvlUXO+NcSmOsU6Tlt6GPAl9v9nPe7eWvg+Feh/3dwvqMA282Wgm3ofjyCbq9ina8UvAm8QBmDBPyVGvD1EMDDBvASYPMdC1cC3wIc8nMnB3ylAwzbsYATuB8lcKMD7LuH3kyA9/lAGQAGnFfxdqEJErgfJXCns+BcBDMBXscqLAD3BIBdE7gzJXCn240KsB8sr4WiVg0M3kI3lgQGAW7PBTzPB2r7XOmLl1q+Bt7ICf9SAg86wM4nwTPGbzMCfAtwRAIv5FR4KYHvpwNeAmwf9OUTeCIH+CsIMCrLHtGG7oAR9NlRpAD8dhcadAFQwK8kMN8p0uV8EpwY8IgDvMgAv53AoAEJS+D+eMBBXSzEbPIBPKoARi3fjSmBO2OUCTA94Csh4JEF8CsJPBgB+xbBMW1oxAj6AL6rAEa1MKkSWICD2tBmgNG306yulCKBKQG/kMDIHta2nTMPALwQCx26KQd545q2C50+gTkhPKANjRhBl1exIPt0JXCCBJ4C7Hs24/MmBwRwVw1sk8CUp0je72LRAJ6Qhc6jh6UEJkngwemglQfcswDGpHz5LjR0iL/TA/bdQ88AwCMLYEyjrBdP4A0F/EICs5aSrnvoxQL4ygJ4IW43bRe6WwOOSWAB9gfscBCM2SqUSuCuBHZtrqUBvCFTGXw7mKKjVA38J8AfBz/9/QTurAxcAW8SwAszTNAHATqpKpXA5tvDrxDA037eFGpDYyZTywKYNoEnI+CYBMZO8OptaEPA9rXMhnwMRQJPxrn5VQDwqA0YFJ32gEFtMtoudPIEHrSAuwBTAAaNF20CU+4Of57AvIWkaxHs34buhoDt36jBhBZFDUy5O/yOALwTA/ZvQzfMZGrmGwoQYCWwSQI34hQbpQF3UBpYA0bt0VkTeFMC/o4APAX4EPBGjdI0Xmg25nMYEpgT8I8TuBMDdu1i1QK8jJfRifkchi508gQexIBdi2D3NvQATaYeARh0nUrg4wQW4Kg29J0kgVH7FdXAJglMvQsdAuxXo1p/vBLYJIGp+0CPA7ySAF6gh6kEPk3gRg3Ycw+9GQBPlLCbD7AS2CKBO3eGVW5DowAbv4oF63aoC22RwAIc1YZusGuwvRvY8qAEtkjgwQ141AXccwDG/a6EamCLBBbgKMDjaYCVwBYJTF5Eer6LtUoBXpZPQAnMksCNHHDhNvSADaHpmxy4dUYJbJDAnRzw9SzAGzdGfIDVhTZIYHrAnkVwPOD31Fm+yQE8o6qUwE0JTFgE+3ax7ryAN2zFyloDN5YERgbcFuBjwB8fH6gxYuthKYEtEpi/i1u1DW0+BQxLmJUXcLUEpp//bRQF3AU4cQJ3kgSGLiQ2O1BHwFuAf7bC455k1i50J0ngBIA9i+BSgCGPA/mLEkrgRyZwKwp4pACMbHBXqoFZEngkmP4CHFjRd+AnK4HxCUx/iuQLeFYCvNkADyUwPIEztIAci2DPNnSOltwArnNKYHwCZwDcBDjueSArDXPAn0pgxtnvCHgL8A/Gfl9KYJIETtCEdi2CHQH3FDfTywGulcBdgAX45RJ4KYFZEjgH4OEneBYCfFutnRP4HJXARwk8Ukz+LsBRNwNdGJTA8ATO8B6HaxdLgJMAbupCZzlFci2ClwCb9bCUwPAEbknmvl8R7NfFGmkBr9SASyWwAPvVAQH3tGwuciqBWRK4JwHc6wH2qOvPn8hdD3CpBM4C+CqYwBkAg/+vaUpgdAKnmfr12tAtw2oEfZFSXWh8AqcB7FcELwG2akIrgakTeKef7gL8o3Vz5QZcKYGbAIedI6UADC4ylMDgBM4DuF4XqwuwEvg0gXsewKMaYJcbmha7hEuAWRIYOolW/sDybEOnBbyx96wu9EECjzwTX4ADFlVwE1oJjE7gRBO/XBvaBfA2uMYlwDQJnCm5qrWh0wKeAsySwC0T4FEMcIZ7QTf5BBibwFjAFY5dqgE+eyhNgLkTuGea935dLBe/LcG9oHtYUMDqQqc6RfIsgl3a0D0BYHQPSwkswALseC/oHpYAC3CZc6QMgOGZLsDYGjjXtB8C7HsvTYC5EzjVKZLjqxyVAG/0gC8BdgM8awH220N7AB78gDs14Ppd6K/pegmXABPeTF3A9X8f+HYF7PD6Qy8EuCUAjN9oaQsNBTwEOOwcKS3gSwns9QR/u+7iPF5AFGDP3UQrCtgwgffvz9+//vrvv5+/Pn/99fn74/PXxz/959fnvP7un3/59rBWIcBbgP9uw7OVwP/wBF3OL7IeAzueBFcCPLGjvWgAM3ahfQFnO0XyK4Ir1fMLu75PGsBK4C7AcW1oAa5YA/sCHsnmfIrCka0aQAO+8gMuk8ACHFjQ8wM26GEJMO8c8vkaizqAbwEWYKY55AO4TBcrwXdsGjShS3WhwwG3hICbALvdikWrslICX7UAr1KA7zqAbwG2SeBwwPlOkRxLx0KAJ/IKrwKAqyRwvia0Y/N2Ph6wRQ9LgHnDLOW2Ia4i6DkBLwEWYAFOAXhYbEwqdaEFmHnraf0kBj3gmx3w0xM44ynSleKrpJiacW8DaSajoi406yZuFQN81wG8BdgtgbcAs+yhpwALMDXgkWm+C7A34GGyTJs3sQSYHfAlwHGAJxPg690utACHAh4C7FHO2zQGtIVm3YqWA2z7KDo74C7AjwLseOFdgKMA7xqAbwEutHWIOUdyBfyOEJselppYAizALkd8CQA/fAs9sgL2KoIr3MP77owaHdW70HdWBqse4PVkwM1oTateAzsCvtMC7gJsvj0y6mH9cWGoVAOnfR9iOgJuBQDfGQEvm8U3bQIPAX4q4MYOeFQGPCoABu9DL8+fwTrtzwAvs8cKGuJZBLBlDSzAPAXkLAN4QuYmYkDMa2DPLnRoAo/EgLsAGwO2akKrBiYFvF0BXwL8mrwJWQe20fWlrYF7HcBLgJkBL8jssNohpE3gSMDgNqgzYJ8i2PCmuu8WmgdwqXPgQoCnL2CfIng7r0DT7Lm+TM+sz1HqGKkFSuipATsdozrXAHYjs6mvDwr4U4Dpm9AFimC7QYQAbmYbklI1cCTgkRvwEOBXRmYjlncI4KYttAAX6GI5A74RHwKZmsgEboyAvdq5ed46DOxi1QE8AZcHAVw+gZ0o5D5F8upi7YcCbneKBKasge+UAKY3YKculusGYtt9NASw2cSDbqGju9AC/ATAw24bg0hg5/WlVA3sBLhnB9wF2G7763x5Ahzexa0KeHoO/zQE/Jq+uzjgAjXwnR2wTxdrCTD48pBb6P7gBE5+ipQdsOUqeP6EDHtY0AQe0YAvAaYpAnxvzB3wzQLYPIE/BTjBMbBXEZwR8PmrWIZNaOjLSw9O4C7AkW3oxp3Ahk3oPz62nRbwiOoHFQDcygE2rS1ImtAPAOyCYeQH7PMqx/RbPzc34Gm3dglwNOAZAXgI8Au7K5b9QQd+NifgnXDyR/j1KYKn3/DbAp6OK8DLqwNyGD+fABhdP4YAdimClx/gZTou6xCw6fKSNoG7AD+yi2UK+LgH5b+8IG/0EVvoXgGwTxFcBfA+vLopwMb7iUDAW4ALATbtYSEBNwHOfIrktIc2uXLbfpkF4C3ATIBTtGrrdrEaNeBuOgxAwH+Ooc9wwFOAY27DrTzotll/+CZHGsAECdxiOLQigIcA//zj59GymCeB4wE7VJRFAPdKgLfx+nwGeAowEeASx8BOgO+nAbZtQiM3nQSAr5hDmRqnSE5drOk0/osEcMTqIsChtaMAVwI8jB8x7t4JutBBgFO8L8zSxVpOl20NeJ1MDuOLW8Cn75vAQ4DZi+DlNP7WgPfJxU3bm1/AaSzAAmz9OKxH8agbJ8DHu4BspeMMA5z0ZUrrUTx5k6NZjwEus2gBW4PoZQBfhQCbP2CKJnQ1wCHvUg76GU7VxfIBvEkAGzfY7AH7dqHNh0uA+TYYLQbwfF+FNeAbNowUCZwM8A4E7FEELwGeAswEuEwT2qcIXi4LqD3g9b6KixFwZwDcAiKtCbAAW5TPzoAHA2DzhqRDEzoUsMNJ8H/YO7sdt24dCkuAdW8D1fsowMy9Aojv/yonbVM0OR3vH4mkSGktBG0u4u1tkZ9ILm3PNHcAB2aAq3jEAPCuAGsMwSoAF3GAm417k67Aui70jCc5kvH8tlaBVwGYul9ZxCNW+AAuANgTwBpDcNEAOJgAWN7D2gLg4inl21yAsz+AyRnATR7gjjEskl2AKwC2BDBzOBSqXN4A4GQY4AaAF7ah0yyAi4l6wvWwNQBeA+AIgAGwNRdalImlTpFUXCx/AHc/S6ngUsa1KrD+o1jcQ2NZHmBSALjJQ3Jhq00AmGepCwC2NAQr9JBVAeC2FMAZAK9wDOwQ4OwM4GYTYLIBcFDImLUBjgCYDWCNQ02mU7RIlitwdZTvswEO3gAmuwDPe46lsOWxsgs9/OvUZ3ecbQOAmzeAO7MqOgI4mW6hyQ/AdTrACkOw/O0yL2Pfo1hJJRcXAzgrA5yXA1hhCC7it1vMAqzzdejClsfaACeVtgUAmwFYpcz1PYqVAbB9gGk5gBW+z1ClAeampK9PzyoBZjkHj2Qb4OoG4DIfYPkhuO0BsE6Aeeo8WXGhk663u94pEgC+HOba8yKlhmmxCgyAZ3YVouHIZgHW8bB4TAA7AEddLtY7BtYAmACwMYATAAbAUyb9SPMAbh3LWG0CnM0AHKQzRtaxNQFwdg9w1dnTLHhYPDOwIYCzqg1NKwIc3QNczAL8VKrAhSuPP2wA3JwAXPcAuHoDuKPMKZnQPLYtWa/A5CTViwWAPdnQSgB3DJpJq5AwrHBaHuBYdwJYfgjeFeAKgDvvZXDlUlMxoU0cA7sCOOksY8egqbZBA+Ar+/xWACcAPAyw3g93YrChsyGAowTA6c0N5TUBdmRD55kANwMeFsfB6VG81V3oIGGb/Hh90XB72i4AV9Hs5V/Gx+33SWoAZ1GAixGAaTChW9gIYPkhuIreqcAy8gBc9YJVVwN4pGlLWgBXIwCLD8FNFKyqREkzcGMcTz5kUwBnfjbymxtiz/NiBOAIgEUALjYBJg8At7Es+XIGXtSEDgqPcojeaNGixIKH9S4L3QKc2FMmkVYFNgOw+BDMxFgEwO/apTJ6gVkuND/A+d3LAfBsgNW83rtWb5oOcB0mZlIFjuwp83btaVmAEwC+8kZ1uju+IMCB2zfJGwIs7mJVZwC/OACumrFqNxN8Q4Cj0az24GI1ZwDf/MEBmr8lMw5Wg0g+AO5dvkQA2KwNrTdq3tuGFD2s9QDOvHiQHsDFDsDZMcBNjZJmwMMafnTp2O/Qd6Hf3lAbipyG02MIYCcull4jcy+lFD2stwDXsZfPq8CRNWfye4DzwgBHAOwG4MFHl/wAXEcCt5UJrTAEV7ltpuitxy2mpPbnNARw9AMwjSyOQo43SwBLD8FtCYDLfBP6/bhThl49D+DACHA8eG0EwBsBnMYB1vYrKkegZwCc+dq2dLD6aWmAxV2sJQCuk83xcYDPytCHJYDvX5W2BTgCYGaAq/peyxHnGRU4sVmfSRXgaglgcReriKVumA6wbngjM3yGAW79SayQ4bYAlh6Cq9Q9NqMAF/W9tjLs0zMAjlx9W9QFOGwFcJPKXM3v/FQDHtb7TGxDrMwDOHAxknYGOALg8wrcri9d0weYGLZpYwC37pgpJLgtgAMAvrAcszv7YwrLeJBnuNAH20rrvgwABsBDANcJAJ++53kST6nAicf7PI5UWh1g6SFYdy4VWo5iwMM6iNR4jK0BTL3ZIZ/fzRjA0o9yMGQ0AD5JxdKzgPMBjhxpow5wNQawtItVhbaYMhtgbRO6/9w0OQSYOuMFgO1VYKMAJzsA07DNMQXgwMDJ6UrQ6gBLD8FSFViVkmLAwzraasvoFj3FhT5MvdYXLvn6VDYDuAndoCrAdfJkfhqp0QAXcwBfWspEAFjcxdI82ZFajWbAwzrsBsvgjDQH4DSYOJEmAGyNX/Eh2BfAl3+s3df/8Nvrbz2e337/U56PGK78p69gtRuvymYAjmPDV8znaZHWBzgA4NN3a3qNS2fHWa5D4gXgrtMx8QGx2QNYeAguWkitAXDt6ziv/+C9Zgfgs9TraMD3M6Ht29C663jVMpNatdZZsMrV13wJ8BwX+mwXrPfL944AC7tYo0GOJgGOZAzgejW41VAFTgOpc+l0Me4AcPQIcNkQ4HD/hV98GksA939POV/rujc4RRJ3sWR2aWWAq32Ar/5mzWII4NBd7y4CnLYAWHgIFrk7AHxlSaJ1gHPnasSLyZa3AFh4CC6uAL74KFaeAXC6uVV+eZPBE8B093ctiIfJIL/SQ3B1BXB0DHC55NOSHRf6Su0ot14kPR02AGwc4IunVmQRYKLX859/+3h8vrm+pQp8KfU+/t1eHq9XvlMgdzChxV0sEYDDXIDjFICvvGv7+BPG1+t9NMgQwFdT70+EPz5ud7hxE4BlXSyJr6xo//DHpmYbNOGdtpqqwOy1Y0+AhV0sBaDE2xEbAGeOYJiqwEk01xIAng5wtAFw0epZ5AHO+wC8hwktPgQXfoDrZIDJK8Dt64vMcqHZm1wAbM3FUgc4XQA4TgI4SQE8rQIHUcBoF4AzAHYB8Pj7FmMzMHfqCYepGQVYdggW+B12csfAl3aMNGuxOBLcVgVOANj8oxxNuiCqA5wBsAeAEwCePzhkGwA3Lc9AFuAWrLXQwRXA1SjAhm1odS/BNMCJIQFNudDc3YwwwMUqwNkXwE0dYNJqWJpoq1TNtdDMlAlntVmAEwC+AXCaBnBgiISxFjrIAUz7ACw7BFfu8IqOIudTd3JbgYO9CiwHcNwIYNkhuC0GMHmtwM0iwMkRwGb5lR2CfQGcLAM8FqcKgJc8RZIeggc+d0QFZozTx7u7n+hC83K25zGw+BDMTdMEgKvSWjXJOAWLFZi1+5PtKuuuABdPAKezt0wAGADv5WJV5uCGqRV4ql+Qh69tDuAIgK27WK4ATmdgTQU4DYfBHMBBCGACwFsCfPb05txvfowAXJYHuO16DDzXmbkLcNsY4DBcnqy50JymQpM9WAmWZdOGJnsAp7kA59FL26vAANg8wIW1LwDAI0GwB3AQybOtjoGlh+CVAKa5AMcFAc4SJTJvBnCyCPDpmazeVlbcAxzMAhwlFm8vE1oY4Mp6U2UGwFXFw7rAxGgMDALMVS2FXVnbAJu0oTMAZkv2Gqy60FwAt60Blh2CPVXgdJgdaTbAaTAEFitw5E8ygTgV2wAngwBPqcDHzlmeDXAYvLBFgFlWtUqncwDACwBMANgFwHk7gEWHu07mCABz7bTFNMCRfeXsGDlqMmhDz9kJjbfQaax8mASYYVnr9gBncwDHKQAfv+v8ChzHrmvRheZIviLdT5oHOM3Ny9vNrHIrUqwA3JXsxXgFjswLt98pkkWAEwDmCpR1gANvAd7ty4TyLhYjwOI7YTYOcBi6rFGAE++6pQ0BDgD46G0NAXy/h67mAR5c2Cqfy3sDXAAwH8BpZP9cEuCmkMvm+RUdgruoy3MAPvxh1BYADiNXtelCD05wBQAD4GvmtwmA88DqW63AgRWuDU+RZv7azB47eNJBsAmA40B+mwU4MvK74ylSEH2Uo3GDtDXAYeCiZgEOjIuWALCFCQIA80w7xQfA3elXALD8EFy4QJKfRWI2D3Dov6ZdgHsJLgEAmwQ4TAI4OAA4d6eeVRe6H2CdE9HiAOCACnx6EGwE4NB9ScMVuK+CBACsMQRXrnAC4JuhqmsD3HQAbh74leyhG9d2Mg3gKm703fl0aUWAI1dl2BVgyZNgLoDrLICbqQp8meAa/ADcsbwlAGAAvDLA5UJuV7cAtwCAlVwsLoDLtH1Meou7lyexc92zaYDvTihVK4+rD4AFJ7ziB+DHAQpmAA6vvmW33ULfzMDvAQBrHQRXplhOa0SaKRPr7fMmZ8tFtgG+l4JvA/h6hmf8+efHredM379/px////Uvf3+IHyL6/Pykg7/46KBf2UhqHgGsspJ5GsB3trnY1fcwVuAaJpfg0W4svl5/fAuLKNqpLUeb8TyAq3iTcvGZqDsAX1vVzmiITDNRMqVWlvBw17Paj6eZ3e3xLA5jxpvhH0prvdSzUavUX/LwEw3cKTE25O6cVNTfc991v4dJ12qbnBYT5JMh8xkLPi10deWERDYpjr/e88lptSpLfioMZJMKMGYWGX17t94Pz5/q+3EtsGNv7kIvANaO4MJ5iUz6RRkAL9lFtyU/FYax3/X4JEVhvdVcjIV3JgT7llcAG9pjH1WX/FRIonntMzof1RL8XPJT/TUZAOD3iwOAPXdTITw/qH1b61P99QDr8/lzQwK8vygB4DVtjTU/1hOR/X2/funzCxsagnjwpTnCykMQgzIAhiCvetEswYSAoFGTgwgAQxDGXwAMQTvxCxsagtz2zwAYgoaUiQAwBAFgAAxB2qL5KogCBPUokQVVBAKCnJZfAAxBXfokAsAQ5FSZADAEeVUkO0I0IMgrvQAYgty2zzhHgqB7enySMWEIhqCrSkQAGILALwCGIPCLp6Eh6JpeZFOIDASdi6yqIDYQdKYIgCHIrR4EgCEI7TNsaAhC+wwbGoKu6YMIAEOQU2UCwBDkVYnMC0GCoC/1Ig8qCBQEfSUX/FJFoCDov4oZAEMQzCsADEHa5ZcAMAR5da/81F/Y0BD0f/okVyqIGAT9KyIADEGwrwAwBGmPv0QAGIJ8KpJD4WloCHLaPsOGhqB/9PwkAAxBPpXIqxA7CHLaPgNgCHJpPuNhSgj6qUgAGILQPuMcCYJALwCGoItK5F4IIrSte5UJAEMQzCs8DQ1BGH9hQ0PQxfaZCABDkFPRMoINDW2nRAAYglB/YUNDkLLiayl+YUNDaJ8BMAT5UAbA0P/YtWOciGEgDKNC2vS48H1o0m/zr5QD5EhQcAP2lNAgUaYiGfs9cQLMJ0/GYHz2jgTGZ2toOCoChqLTc0blbLG8EjBc+P5dImAwPltDg+WVLRYcclsjYCiqJQKGopaMzynj/vXf0HAxLz0ChqLmyDe5O2pGvH8jYChab2uz9GsNzXgyE8eNgAUM1xife+by5sxx+woYrnABTxfw3aEziCUTEjBuX+9IcK7WI2Aoas2snD0+f62h4byv3x4BQ1GZmoDRr3ckOEefPGBraAp//bZEwFC03yBgylr06yGYom6reK2hMT5bQ4PxWcBwkOlZwBifraHh/3n8tcXC5StgsLsSMBifbbGY5AZ+7j9/tY9H9vePbfezCZhKN/D25K8vIzSlbuBP0QqYwpL26rfwS78AAAAAAAAAAAAAAAAAAAAAAAAAAAAAAAAAAAAAAAAAAAAAAAAAAAAAAAAAAAAAAAAAAAAAAAAAAAAAAAAAAAAAAAAAAAAAAAAAAAAAAAAAAAAAAAAAAAAAAAAAAAAAAAAAAAAAAAAAAAAAAAAAAAAAAAAAAAAAAAAAAAAAAAAAAAAAAAAAAAAAAAAAAAAAAAAAAAAAAAAAAAAAAAAAAAAAAAAAAAAAAAAAAAAAAAAAAAAAAAAAAAAAAAAAAAAAAAAAAAAAAAAAAAAAAAAAAAAAAAAAAAAAAAAAAAAAAAAAAAAAAAAAAAAAAAAAAAAAAAAAAAAAAAAAAAAAAAAAAAAAAAAAAAAAAAAAAAAAAAAAAAAAAAAAAAAAAAAAAAAAAAAAAAAAAAAAAAAAAAAAAAAAAAAAAAAAAAAAAAAAAAAAAAAAAAAAAAAAAAAAAAAAAAAAAAAAAAAAAAAAAAAAAAAAAAAAAAAAAAAAAAAAAAAAAAAAAAAAAAAAAAAAAAAAAAAAAAAAAAAAAAAAAAAAAAAAAAAAAAAAAAAAAAAAAAAAAAAAAAAAAAAAAAAAAAAAAAAAAAAAAAAAAAAAAAAAAAAAAPDdHhwSAAAAAAj6/9obBgAAAAAAAAAAAAAAAAAAAAAAAAAAAAAAAAAAAAAAAAAAAAAAAAAAAAAAAAAAAAAAAAAAAAAAAAAAAAAAAAAAAAAAAAAAAAAAAAAAAAAAAAAAAAAAAAAAAAAAAAAAAAAAAAAAAAAAAAAAABgL5rJ0dcaG98kAAAAASUVORK5CYII=;" vertex="1" parent="1">
          <mxGeometry x="1200.67" y="359.5" width="89.33" height="50.5" as="geometry" />
        </mxCell>
        <mxCell id="4GXkYY8GZuQVcNmuauDH-7" value="" style="outlineConnect=0;dashed=0;verticalLabelPosition=bottom;verticalAlign=top;align=center;html=1;shape=mxgraph.aws3.cloud_2;fillColor=#F58534;gradientColor=none;" vertex="1" parent="1">
          <mxGeometry x="1207.16" y="105" width="75" height="75" as="geometry" />
        </mxCell>
        <mxCell id="4GXkYY8GZuQVcNmuauDH-8" value="&lt;b&gt;&lt;font style=&quot;font-size: 32px;&quot; color=&quot;#e78822&quot;&gt;CUBE&lt;/font&gt;&lt;/b&gt;" style="text;strokeColor=none;align=center;fillColor=none;html=1;verticalAlign=middle;whiteSpace=wrap;rounded=0;" vertex="1" parent="1">
          <mxGeometry x="660" y="-50" width="120" height="60" as="geometry" />
        </mxCell>
        <mxCell id="4GXkYY8GZuQVcNmuauDH-9" value="" style="shape=image;verticalLabelPosition=bottom;labelBackgroundColor=default;verticalAlign=top;aspect=fixed;imageAspect=0;image=data:image/png,iVBORw0KGgoAAAANSUhEUgAAADwAAAA9CAYAAADxoArXAAAAAXNSR0IArs4c6QAAAARnQU1BAACxjwv8YQUAAAAJcEhZcwAAFxEAABcRAcom8z8AAA1LSURBVGhD3VsJdFTVGU49trXt0VpBFAPoLEkGBAmCSCwutKhYLW6o2KrUsrghBMgOBJBFQUVRQFDcsBUFrRuKIJAEPFShbtgCgrIzk0xmksnMZBImM/n7ffe9CUPykiGTKIF7znde5s199/3fvf/9/v/e3EmIVRxZpr6OHFOuPcu0vjjbVOLIModLcsxSnH18QRtoC22ibSXZ5hzaqpvd/HIow3Jjaba5sDTHHKqekiSeiRZxtgGi9UGbaFv1FCv/DgEFtF2nEbu4pljPcOaaFpflWSSQbxVXrsXwRW0RtJU203ZnjmmR62HrGTot47Ivs/N5xVnmosNTSdS40RMBtJ0c4OaF5KTTO7qwNxyZJpBNYkXDhk4kcI6TC+Z1oeFIg+zC4ElCNgJyUaTBTaepleIc08CyPHPIlWf8YCyw4abQWH2je0aIrtdckBO5kaNONyHBnm1ay8nuMHigKbA+VdI7EUDDRvDhuwpcI/U5vyL3SIb3EAnq7tUH2whMMkt5nJrC9skNoWutIrs/t1N3GB10x6HGLhi6Y7xZZt6WJJNvSZKJBsi7OUneHm5RpNzAtnFmycP9pcOs6h7b2Jthljl3JEnGTUmSWQ85eP6Zv1jlm3SLIm9kRyyQG1Q7SK4JUOX0aiiaUcVY4AgUPGCRM3vY5LQLbXLWRUfQDvgdcErXrnJRvxTZDVLByWaZfGuSJCTbxNTbJlvHWnDPJMvutcqv8Tyhnu+RXNfGb3AvwdZVUtHG2vvjJ02Oh8A14VCW6UPvpPhirQcvL3rQIh1SbXJxWoqsHGlRn9ehE9YDvF55eYrqkCL8zQ4adFWK6pwzcO+Ve6wiU02Si1H8OTomGyO68SGrrBl5vqwZ0QUErbL6PosM/1Oy/Mxmk8vR1p4Mi/IUI3uaAjmSawJ8+yBdy6hSLEQIt+upGcP5HM43SxXmHOedTDErtzwVZBbfZZUdcGczRpZ1O11sk1HXJ0v1JJMMGZgsv0InFN3XRWpn95HaovlSOTtNvBkdpQbt7Zpgll7oUNZZMdyq5ruRPU2BHBGiDjJXrjGqcCyIEE7sZZMLQGToNcly96BkRWDqkCRl2HK4K0dv/I1J8v5Iq5zaras8OTRJ7kDdPpelyOaHLdIbZHpcapOdYxLFM6ufhAMVEtz/lTinXyqlmZ2VsXdcnaymx2O3a+0a2RML5JrQEtmPEO6M0eoIt+6JeZYK47v1TZHpELLARJNshdjw+2vhyvdjROn+m0ZbZO5Qq5yJOfooCLTH9a5rk8WdkSiuGX0l7HeLhA6La+4gcU44TwnbneggEp6BduMlTK4JRl8cKyKE28Ol0/qnyHa4LMMAxAHKqCkw6w3+Y7KcC6Jd4AV9Maq8z7nJTmLnnN5dI16VmyilM9Okdvdn4n95mLgmnKumBwWvT5pNfgnveBXqHi9hotUIXwbCe2AYhYkuGPEcGjz5lmQ5rZtNzcERECAavC/TrMhTwNgZdHdfnknsucnyXV4v+XZ0J9mWbpYvxlgkfXCS/ALPd+trk//CY+KNyUSLCTMskcglMJ4jwZGNruMHubchNFTlU6C0S+62SiU6gR0z/LpkhKiu0h1T4XsIExOYneNNMrC/WRJTU8TaxyadoA+ndrVJB3TqS1D1eMNSBC0iXAZyWyA61w1IhhBZFdn6mkD3pcreCiEjQRJjPRKmoPWHZ1DB2RY9g0rPJGTAFSlyNeb9dQNS5MEbkmTVKIvq4JZoDtEiwgQNIAEa3JgxJME6dEUVHvT7/DtyP/Isr/zM+xGQKDuopWSJFhMmSCiWMUZ1+Lmp+xHEars5aBXCJxJ+XMJZJnGMO1fsY9qLI/0ccYw/TxwTEuPDuI5iH3u2giOjM9qPLx3+8Qhnng9DO0n5kmFSuX6++N6bKuUv/x0Y3kyMkLKX7hXP62Ok8pOnxb9yBjKwPjppg/fGwI9DmMZknC8Vb44XKdsnUuUR8Tml+psPxLd+gfgLFx87Cp4T/4YXJGz/n9bOYa8c3rxMe0/WBQ3fHQOtTNgkxXC/ksndpfwfoyW4s0ikwiHi2i3iOSg1uzaId+08RTom1j0rPoyob/WTUrlxCTpur4h7D9o7JLWHvkVG1k95kLEdjaP1CHO+Iu8tnfV7qYD7+tbNl6rPl8FIGFphFyk/IIFNr0r5srHiWZ7RNFCn4u1cjfCap1Rbof1fiHjReX6nBHesl5JpvTRPMrKlCbQOYcxXvtw178/i+/gJ8RUshLEwdM1cqdqyXILfFSp3Ln91pBIgdk4D0DtwpbA5p6ZKxYpMfZTniXf1XKmEWwe3fwKsU51QMqUn3tuloS0x0HLC7OUcixIWH8UJo6FGBob64L5edADhW/uMlL/SBGGKHMiWzrlKvB9M1zuN7QB4lp2n2gJZ78qZ6BSM8E9LmKPRUUrye4jnzQlKXJRhEQNB3LsaRJXRT+H7hRjhUVDXhvOOiku4F9yq6vs5hyNk2Ykgq1ybnzHq3g8f/YkJQx3t6R2kdPaVmK9TNKMoRjQIZL0QGvfC26RsyT3i10dcEUaYsY9tp8XjCMa2l+Jcq5QvHVVHSF3hIf7CRVLxr4mYKtdDvDQvOQ6EKU6dxLMiR2pKdknQvl38RYuVmmqEn4WReeJ6+nolPn6dAK8Vb+WI65nB4p5/swLnfNmLf5PqHQUSKj8oVV+/p2kAicFjPK+PleK8FKX6aoSPB2FmTO4FQ0TCIYmU4P6vMb8eBzHd7Yjo0BIBDOZIK6jvob4eKLheaoMBqdy0VJEre+Eu7X3I1JzTeh8/wvaHz1IjFV1C5Yc0gnRrujCh3BwG1iOs7utTwL9hidq/ii6Vm16T0sf/oGVSuvoff8IIGdElVLoHRsxS6koF1TBDH3V9bvOKeaju8/v3HwGJuRL2ufRWtFL24jBx4B1KufnOtkj48PebpHhSN4Qnq5pzCgxVMD6iuEq0lt4vDiz3+D3XxM7pfaXG+YPeilY4tx1jOxx5Z5skvGujIljMkMP8lhifKGXP//VowozDCGX8nlmZE8lDjfN7vRWtuBcOOREIf4rQknS0ATCUwnMU4ag4zCuNPskI391whDOQaeH7k46wypwWDT2KsGdZel1qefIRRnLievIahCA9J6axSE5KZ1+l7YIgU3Mioahx7tJb0Yr72ZvE/tCZqsMUxp0jzvyeeBa5NPNpxHrvyllt0KXxd0l+d4QqhB89vVT59UePSdniO0H8CqXIIfd+vRWtMLtyzkqT0icGapgzQGVnDGsBLDcDn7+BEQbhKanHkzBUuj5hKjFGkqmjtvLR4zFcss7NNzwvYX+Z3opWAltWqFyc9RToGUDwuwIE6QNqA6D6q3e15SE8INq2Y0F8hLE6ii6Hf/hMi70RwrwCrnk3qNFQRpNsNOCezMEbEN68XEtYmLURXAtzx8O9G+BmwiEJH/hGnDPT1LSpb18sNJswVzdU2+gScu/DnEpVgkQjSkC+/JURGEm4MkcpQhKfKV6RNFSllv5yvRWtBP7zllrz1nUSRptLz9ri7WqbSCpdEtpZJCVMdH4Kl+aSzjX3WglXeXUTUWrDajloH/1bcc7op1ZL/sJ662MYzW0bdkTFO5Ok4l0sKzGSYV+p3ohWKje+hJVYtlJiNcI66cDmNyTs2CahvVukbNHtyg4j+2Kh2YRVQp9tkZqDW3UTtUJXZNLvXTVbjUjdqKqFxALlFcUT4faReYc57px+ScOwNP8WKZloQ6dM1p6tawfhCG1zDU5taGDXMaL5hAHGSfZ6dKkN1Ujgy3f0BYNuJN0Xn6myyv0ydBdkHG4ktfQgG/O8Ma5O2AhOA7WtA/Xmhrza/6pn07EirhMAzIedj/Zv4I61VRVS+e/XVOjhiHC3wsntVLof8+voNhpJPAKf/VNt2h0h+xxWVtPUQoP5eXQbzQW5xn3GwzHmbBCbrZt5pNRW+aRq6yq1ncPNAqq6tp0DQYuCHeJH4eGuSXRRYWnVnCNk381XHaMyNAM7mgN1xiPeUzxqgY4VErdnjEr1tnWI19kqueDcboDHLkdWdaNS+OgS2PymIkzR80DkuEkYT/ipD3Ik1xad0+J8cj7SW4L7vtTNbVhqg1VqVyMc8OjXCPCZSg+Fjy6BLcsxuvPEszxTW2O3Almi7pwWT6fxNLlRpWOBynWnXSzV336sm9yyEvjqPSl/7QFtk0BfSrYG6k7iObI6X+iM86xlBJpymhFb8yXkQjbUgsL4rDbl40gbG0PkrCW5qgOmPGkaz2naI+BuRxf1v1su5ajOVVs/wvw8gHB1WHPbGKitqZbKT19W7bUm2brTtBn6aVqW4oyWnZeOBgXGPqadGiXOby4HmZk1iacGqVWRCl0qVsfvbfVBTm5wOwiOOl2t8NR4qx7/p1syt0bMpsvHBGO1yuIM2ooT5KL9DOCCBTrNI0X95iHLVKhIxxGm2hoiZJHVFTT66xb+AgQVQfpk+FWLGriCvXldOur0jAt7g7/5OfF/t2RZVJqZcrpOK3YpzrQMRrgqAEKM0yfSL9MOwnadRvML5nVfoM3/9pA20lbd7EZKQsL/ASSOt4NsS1n8AAAAAElFTkSuQmCC;" vertex="1" parent="1">
          <mxGeometry x="690" width="60" height="61" as="geometry" />
        </mxCell>
      </root>
    </mxGraphModel>
  </diagram>
</mxfile>
